<svg width="100%" viewBox="0 0 1200 100" xmlns="http://www.w3.org/2000/svg">
  <defs>
    <linearGradient id="bg3" x1="0%" y1="0%" x2="100%" y2="0%">
      <stop offset="0%" stop-color="#0F172A"/>
      <stop offset="100%" stop-color="#1a1035"/>
    </linearGradient>
    <linearGradient id="bar3" x1="0%" y1="0%" x2="0%" y2="100%">
      <stop offset="0%" stop-color="#7C3AED"/>
      <stop offset="100%" stop-color="#34D399"/>
    </linearGradient>
  </defs>
  <rect width="1200" height="100" rx="14" fill="url(#bg3)"/>
  <rect x="0" y="0" width="8" height="100" rx="4" fill="url(#bar3)"/>

  <!-- rocket icon -->
  <circle cx="64" cy="50" r="26" fill="#7C3AED" fill-opacity="0.15" stroke="#A78BFA" stroke-width="1.5"/>
  <path d="M64 34 C72 40, 74 50, 68 62 L60 62 C54 50, 56 40, 64 34 Z" fill="#A78BFA"/>
  <circle cx="64" cy="46" r="3" fill="#0F172A"/>
  <polygon points="58,60 54,68 61,63" fill="#34D399"/>
  <polygon points="70,60 74,68 67,63" fill="#34D399"/>

  <text x="106" y="45" font-family="Segoe UI, sans-serif" font-size="26" font-weight="800" fill="#F1F5F9">Proyectos Destacados</text>
  <text x="106" y="72" font-family="Segoe UI, sans-serif" font-size="20" fill="#94A3B8">de la idea al repositorio</text>

  <line x1="440" y1="50" x2="1140" y2="50" stroke="#334155" stroke-width="1.5" stroke-dasharray="2 8"/>
  <rect x="1145" y="44" width="12" height="12" rx="3" fill="#7C3AED"/>
</svg>
