<svg width="100%" viewBox="0 0 1200 100" xmlns="http://www.w3.org/2000/svg">
  <defs>
    <linearGradient id="bg2" x1="0%" y1="0%" x2="100%" y2="0%">
      <stop offset="0%" stop-color="#0F172A"/>
      <stop offset="100%" stop-color="#12233b"/>
    </linearGradient>
    <linearGradient id="bar2" x1="0%" y1="0%" x2="0%" y2="100%">
      <stop offset="0%" stop-color="#34D399"/>
      <stop offset="100%" stop-color="#10B981"/>
    </linearGradient>
  </defs>
  <rect width="1200" height="100" rx="14" fill="url(#bg2)"/>
  <rect x="0" y="0" width="8" height="100" rx="4" fill="url(#bar2)"/>

  <!-- gear / hex icon -->
  <circle cx="64" cy="50" r="26" fill="#10B981" fill-opacity="0.15" stroke="#34D399" stroke-width="1.5"/>
  <polygon points="64,32 78,40 78,58 64,66 50,58 50,40" fill="none" stroke="#34D399" stroke-width="2.5"/>
  <circle cx="64" cy="49" r="6" fill="#34D399"/>

  <text x="106" y="45" font-family="Segoe UI, sans-serif" font-size="26" font-weight="800" fill="#F1F5F9">Stack &amp; Herramientas</text>
  <text x="106" y="72" font-family="Segoe UI, sans-serif" font-size="20" fill="#94A3B8">de la interfaz al dato, capa por capa</text>

  <!-- decorative nodes -->
  <g stroke="#334155" stroke-width="1.5">
    <line x1="520" y1="30" x2="570" y2="30"/>
    <line x1="520" y1="50" x2="600" y2="50"/>
    <line x1="520" y1="70" x2="560" y2="70"/>
  </g>
  <circle cx="570" cy="30" r="4" fill="#7C3AED"/>
  <circle cx="600" cy="50" r="4" fill="#34D399"/>
  <circle cx="560" cy="70" r="4" fill="#A78BFA"/>
</svg>
