<svg width="1000" height="220" viewBox="0 0 1000 220" xmlns="http://www.w3.org/2000/svg">
  <defs>
    <linearGradient id="bgGrad" x1="0%" y1="0%" x2="100%" y2="100%">
      <stop offset="0%" stop-color="#0F172A"/>
      <stop offset="100%" stop-color="#111827"/>
    </linearGradient>
    <linearGradient id="barGrad" x1="0%" y1="0%" x2="0%" y2="100%">
      <stop offset="0%" stop-color="#A78BFA"/>
      <stop offset="100%" stop-color="#34D399"/>
    </linearGradient>
    <linearGradient id="titleGrad" x1="0%" y1="0%" x2="100%" y2="0%">
      <stop offset="0%" stop-color="#A78BFA"/>
      <stop offset="100%" stop-color="#34D399"/>
    </linearGradient>
  </defs>

  <rect width="1000" height="220" rx="16" fill="url(#bgGrad)"/>
  <rect x="0.5" y="0.5" width="999" height="219" rx="16" fill="none" stroke="#27324a" stroke-width="1"/>
  <rect x="0" y="0" width="8" height="220" rx="4" fill="url(#barGrad)"/>

  <text x="60" y="90" font-family="Segoe UI, Verdana, sans-serif" font-size="40" font-weight="700" fill="url(#titleGrad)">Alan Lacán Flores</text>
  <text x="60" y="120" font-family="Segoe UI, Verdana, sans-serif" font-size="16" fill="#9CA9BF">Backend Developer · Guatemala 🇬🇹</text>

  <text x="960" y="45" font-family="Consolas, monospace" font-size="11" fill="#34D399" text-anchor="end" opacity="0.8" letter-spacing="1">EN CONSTRUCCIÓN</text>

  <rect x="111.0" y="170" width="118" height="28" rx="14" fill="none" stroke="#7C3AED" stroke-width="1.3" opacity="0.8"/>
<text x="170.0" y="188" font-family="Consolas, monospace" font-size="12" fill="#7C3AED" text-anchor="middle">Java</text>
<rect x="243.0" y="170" width="118" height="28" rx="14" fill="none" stroke="#10B981" stroke-width="1.3" opacity="0.8"/>
<text x="302.0" y="188" font-family="Consolas, monospace" font-size="12" fill="#10B981" text-anchor="middle">Spring Boot</text>
<rect x="375.0" y="170" width="118" height="28" rx="14" fill="none" stroke="#7C3AED" stroke-width="1.3" opacity="0.8"/>
<text x="434.0" y="188" font-family="Consolas, monospace" font-size="12" fill="#7C3AED" text-anchor="middle">React</text>
<rect x="507.0" y="170" width="118" height="28" rx="14" fill="none" stroke="#10B981" stroke-width="1.3" opacity="0.8"/>
<text x="566.0" y="188" font-family="Consolas, monospace" font-size="12" fill="#10B981" text-anchor="middle">Node.js</text>
<rect x="639.0" y="170" width="118" height="28" rx="14" fill="none" stroke="#7C3AED" stroke-width="1.3" opacity="0.8"/>
<text x="698.0" y="188" font-family="Consolas, monospace" font-size="12" fill="#7C3AED" text-anchor="middle">PostgreSQL</text>
<rect x="771.0" y="170" width="118" height="28" rx="14" fill="none" stroke="#10B981" stroke-width="1.3" opacity="0.8"/>
<text x="830.0" y="188" font-family="Consolas, monospace" font-size="12" fill="#10B981" text-anchor="middle">Docker</text>
</svg>